<?xml version="1.0" encoding="UTF-8" standalone="no"?>
<!DOCTYPE svg PUBLIC "-//W3C//DTD SVG 1.1//EN"
 "http://www.w3.org/Graphics/SVG/1.1/DTD/svg11.dtd">
<!-- Generated by graphviz version 2.38.0 (20140413.2041)
 -->
<!-- Title: %3 Pages: 1 -->
<svg width="721pt" height="332pt"
 viewBox="0.00 0.00 721.39 332.00" xmlns="http://www.w3.org/2000/svg" xmlns:xlink="http://www.w3.org/1999/xlink">
<g id="graph0" class="graph" transform="scale(1 1) rotate(0) translate(4 328)">
<title>%3</title>
<polygon fill="white" stroke="none" points="-4,4 -4,-328 717.394,-328 717.394,4 -4,4"/>
<!-- 21&#45;E -->
<a xlink:href="21-eulerian"><g id="node1" class="node"><title>21&#45;E</title>
<ellipse fill="none" stroke="black" cx="27.9475" cy="-234" rx="27.8951" ry="18"/>
<text text-anchor="middle" x="27.9475" y="-230.3" font-family="Times,serif" font-size="14.00">21&#45;E</text>
</g></a>
<!-- 14&#45;T -->
<a xlink:href="14-traversal"><g id="node2" class="node"><title>14&#45;T</title>
<ellipse fill="none" stroke="black" cx="27.9475" cy="-162" rx="27.8951" ry="18"/>
<text text-anchor="middle" x="27.9475" y="-158.3" font-family="Times,serif" font-size="14.00">14&#45;T</text>
</g></a>
<!-- 21&#45;E&#45;&gt;14&#45;T -->
<g id="edge1" class="edge"><title>21&#45;E&#45;&gt;14&#45;T</title>
<path fill="none" stroke="black" d="M27.9475,-215.697C27.9475,-207.983 27.9475,-198.712 27.9475,-190.112"/>
<polygon fill="black" stroke="black" points="31.4476,-190.104 27.9475,-180.104 24.4476,-190.104 31.4476,-190.104"/>
</g>
<!-- 06&#45;GB -->
<a xlink:href="06-graph-basics"><g id="node11" class="node"><title>06&#45;GB</title>
<ellipse fill="none" stroke="black" cx="147.948" cy="-90" rx="34.394" ry="18"/>
<text text-anchor="middle" x="147.948" y="-86.3" font-family="Times,serif" font-size="14.00">06&#45;GB</text>
</g></a>
<!-- 14&#45;T&#45;&gt;06&#45;GB -->
<g id="edge8" class="edge"><title>14&#45;T&#45;&gt;06&#45;GB</title>
<path fill="none" stroke="black" d="M48.0328,-149.284C66.8314,-138.318 95.1969,-121.771 116.908,-109.107"/>
<polygon fill="black" stroke="black" points="118.883,-112.006 125.757,-103.944 115.356,-105.96 118.883,-112.006"/>
</g>
<!-- 26&#45;SP -->
<a xlink:href="26-string-processing"><g id="node3" class="node"><title>26&#45;SP</title>
<ellipse fill="none" stroke="black" cx="239.948" cy="-162" rx="32.4942" ry="18"/>
<text text-anchor="middle" x="239.948" y="-158.3" font-family="Times,serif" font-size="14.00">26&#45;SP</text>
</g></a>
<!-- 01&#45;C -->
<a xlink:href="01-complexity"><g id="node4" class="node"><title>01&#45;C</title>
<ellipse fill="none" stroke="black" cx="320.948" cy="-18" rx="28.6953" ry="18"/>
<text text-anchor="middle" x="320.948" y="-14.3" font-family="Times,serif" font-size="14.00">01&#45;C</text>
</g></a>
<!-- 26&#45;SP&#45;&gt;01&#45;C -->
<g id="edge2" class="edge"><title>26&#45;SP&#45;&gt;01&#45;C</title>
<path fill="none" stroke="black" d="M241.454,-143.811C243.741,-125.013 249.372,-94.5631 262.948,-72 270.793,-58.9608 282.815,-47.2208 293.884,-38.1241"/>
<polygon fill="black" stroke="black" points="296.364,-40.6275 302.078,-31.7053 292.048,-35.117 296.364,-40.6275"/>
</g>
<!-- 04&#45;T -->
<a xlink:href="04-trees"><g id="node5" class="node"><title>04&#45;T</title>
<ellipse fill="none" stroke="black" cx="299.948" cy="-90" rx="27.8951" ry="18"/>
<text text-anchor="middle" x="299.948" y="-86.3" font-family="Times,serif" font-size="14.00">04&#45;T</text>
</g></a>
<!-- 26&#45;SP&#45;&gt;04&#45;T -->
<g id="edge3" class="edge"><title>26&#45;SP&#45;&gt;04&#45;T</title>
<path fill="none" stroke="black" d="M253.263,-145.465C261.218,-136.184 271.467,-124.227 280.335,-113.881"/>
<polygon fill="black" stroke="black" points="283.23,-115.882 287.081,-106.011 277.915,-111.326 283.23,-115.882"/>
</g>
<!-- 02&#45;LS -->
<a xlink:href="02-linear-struct"><g id="node6" class="node"><title>02&#45;LS</title>
<ellipse fill="none" stroke="black" cx="399.948" cy="-90" rx="32.4942" ry="18"/>
<text text-anchor="middle" x="399.948" y="-86.3" font-family="Times,serif" font-size="14.00">02&#45;LS</text>
</g></a>
<!-- 02&#45;LS&#45;&gt;01&#45;C -->
<g id="edge4" class="edge"><title>02&#45;LS&#45;&gt;01&#45;C</title>
<path fill="none" stroke="black" d="M383.194,-74.1548C371.973,-64.2126 357.038,-50.9789 344.61,-39.9666"/>
<polygon fill="black" stroke="black" points="346.675,-37.1199 336.869,-33.1076 342.032,-42.3591 346.675,-37.1199"/>
</g>
<!-- 11&#45;BS -->
<a xlink:href="11-binary-search"><g id="node7" class="node"><title>11&#45;BS</title>
<ellipse fill="none" stroke="black" cx="512.948" cy="-234" rx="33.2948" ry="18"/>
<text text-anchor="middle" x="512.948" y="-230.3" font-family="Times,serif" font-size="14.00">11&#45;BS</text>
</g></a>
<!-- 11&#45;BS&#45;&gt;02&#45;LS -->
<g id="edge5" class="edge"><title>11&#45;BS&#45;&gt;02&#45;LS</title>
<path fill="none" stroke="black" d="M518.551,-216.09C523.773,-196.988 528.864,-165.737 514.948,-144 512.554,-140.261 467.383,-120.134 434.379,-105.792"/>
<polygon fill="black" stroke="black" points="435.581,-102.499 425.014,-101.735 432.799,-108.922 435.581,-102.499"/>
</g>
<!-- 03&#45;S -->
<a xlink:href="03-sorting"><g id="node8" class="node"><title>03&#45;S</title>
<ellipse fill="none" stroke="black" cx="478.948" cy="-162" rx="27.0966" ry="18"/>
<text text-anchor="middle" x="478.948" y="-158.3" font-family="Times,serif" font-size="14.00">03&#45;S</text>
</g></a>
<!-- 11&#45;BS&#45;&gt;03&#45;S -->
<g id="edge6" class="edge"><title>11&#45;BS&#45;&gt;03&#45;S</title>
<path fill="none" stroke="black" d="M504.89,-216.411C500.867,-208.129 495.911,-197.925 491.412,-188.662"/>
<polygon fill="black" stroke="black" points="494.465,-186.936 486.947,-179.47 488.168,-189.994 494.465,-186.936"/>
</g>
<!-- 13&#45;DPI -->
<a xlink:href="13-dynamic-programming-i"><g id="node9" class="node"><title>13&#45;DPI</title>
<ellipse fill="none" stroke="black" cx="249.948" cy="-306" rx="36.2938" ry="18"/>
<text text-anchor="middle" x="249.948" y="-302.3" font-family="Times,serif" font-size="14.00">13&#45;DPI</text>
</g></a>
<!-- 17&#45;SSSP -->
<a xlink:href="17-single-source-shortest-path"><g id="node10" class="node"><title>17&#45;SSSP</title>
<ellipse fill="none" stroke="black" cx="298.948" cy="-234" rx="42.4939" ry="18"/>
<text text-anchor="middle" x="298.948" y="-230.3" font-family="Times,serif" font-size="14.00">17&#45;SSSP</text>
</g></a>
<!-- 13&#45;DPI&#45;&gt;17&#45;SSSP -->
<g id="edge7" class="edge"><title>13&#45;DPI&#45;&gt;17&#45;SSSP</title>
<path fill="none" stroke="black" d="M261.312,-288.765C267.286,-280.23 274.74,-269.582 281.434,-260.019"/>
<polygon fill="black" stroke="black" points="284.437,-261.833 287.304,-251.633 278.702,-257.819 284.437,-261.833"/>
</g>
<!-- 17&#45;SSSP&#45;&gt;14&#45;T -->
<g id="edge16" class="edge"><title>17&#45;SSSP&#45;&gt;14&#45;T</title>
<path fill="none" stroke="black" d="M260.173,-226.769C213.197,-218.641 132.014,-202.726 64.9475,-180 63.0394,-179.353 61.0975,-178.64 59.1531,-177.883"/>
<polygon fill="black" stroke="black" points="60.1283,-174.496 49.5539,-173.837 57.4097,-180.946 60.1283,-174.496"/>
</g>
<!-- 17&#45;SSSP&#45;&gt;04&#45;T -->
<g id="edge15" class="edge"><title>17&#45;SSSP&#45;&gt;04&#45;T</title>
<path fill="none" stroke="black" d="M299.068,-215.871C299.239,-191.67 299.552,-147.211 299.755,-118.393"/>
<polygon fill="black" stroke="black" points="303.256,-118.214 299.826,-108.189 296.256,-118.164 303.256,-118.214"/>
</g>
<!-- 17&#45;SSSP&#45;&gt;02&#45;LS -->
<g id="edge14" class="edge"><title>17&#45;SSSP&#45;&gt;02&#45;LS</title>
<path fill="none" stroke="black" d="M309.136,-216.251C320.344,-198.097 339.138,-168.447 356.948,-144 364.105,-134.174 372.432,-123.712 379.841,-114.701"/>
<polygon fill="black" stroke="black" points="382.629,-116.823 386.328,-106.894 377.245,-112.349 382.629,-116.823"/>
</g>
<!-- 06&#45;GB&#45;&gt;01&#45;C -->
<g id="edge9" class="edge"><title>06&#45;GB&#45;&gt;01&#45;C</title>
<path fill="none" stroke="black" d="M174.6,-78.2159C205.092,-65.8778 255.047,-45.6648 287.967,-32.3449"/>
<polygon fill="black" stroke="black" points="289.638,-35.4441 297.596,-28.4488 287.013,-28.9552 289.638,-35.4441"/>
</g>
<!-- 18&#45;APSP -->
<a xlink:href="18-all-pairs-shortest-path"><g id="node12" class="node"><title>18&#45;APSP</title>
<ellipse fill="none" stroke="black" cx="347.948" cy="-306" rx="43.5923" ry="18"/>
<text text-anchor="middle" x="347.948" y="-302.3" font-family="Times,serif" font-size="14.00">18&#45;APSP</text>
</g></a>
<!-- 18&#45;APSP&#45;&gt;17&#45;SSSP -->
<g id="edge10" class="edge"><title>18&#45;APSP&#45;&gt;17&#45;SSSP</title>
<path fill="none" stroke="black" d="M336.335,-288.411C330.355,-279.868 322.942,-269.278 316.299,-259.787"/>
<polygon fill="black" stroke="black" points="319.078,-257.655 310.476,-251.47 313.344,-261.669 319.078,-257.655"/>
</g>
<!-- 07&#45;UF -->
<a xlink:href="07-union-find"><g id="node13" class="node"><title>07&#45;UF</title>
<ellipse fill="none" stroke="black" cx="399.948" cy="-162" rx="33.5952" ry="18"/>
<text text-anchor="middle" x="399.948" y="-158.3" font-family="Times,serif" font-size="14.00">07&#45;UF</text>
</g></a>
<!-- 07&#45;UF&#45;&gt;04&#45;T -->
<g id="edge12" class="edge"><title>07&#45;UF&#45;&gt;04&#45;T</title>
<path fill="none" stroke="black" d="M380.191,-147.17C364.874,-136.448 343.492,-121.481 326.651,-109.692"/>
<polygon fill="black" stroke="black" points="328.514,-106.724 318.315,-103.857 324.5,-112.459 328.514,-106.724"/>
</g>
<!-- 07&#45;UF&#45;&gt;02&#45;LS -->
<g id="edge11" class="edge"><title>07&#45;UF&#45;&gt;02&#45;LS</title>
<path fill="none" stroke="black" d="M399.948,-143.697C399.948,-135.983 399.948,-126.712 399.948,-118.112"/>
<polygon fill="black" stroke="black" points="403.448,-118.104 399.948,-108.104 396.448,-118.104 403.448,-118.104"/>
</g>
<!-- 08&#45;ST -->
<a xlink:href="08-segment-tree"><g id="node14" class="node"><title>08&#45;ST</title>
<ellipse fill="none" stroke="black" cx="593.948" cy="-162" rx="32.4942" ry="18"/>
<text text-anchor="middle" x="593.948" y="-158.3" font-family="Times,serif" font-size="14.00">08&#45;ST</text>
</g></a>
<!-- 08&#45;ST&#45;&gt;02&#45;LS -->
<g id="edge13" class="edge"><title>08&#45;ST&#45;&gt;02&#45;LS</title>
<path fill="none" stroke="black" d="M567.719,-151.17C561.267,-148.79 554.367,-146.276 547.948,-144 501.053,-127.375 488.582,-125.341 441.948,-108 439.56,-107.112 437.105,-106.177 434.638,-105.221"/>
<polygon fill="black" stroke="black" points="435.762,-101.902 425.175,-101.484 433.19,-108.413 435.762,-101.902"/>
</g>
<!-- 24&#45;NT -->
<a xlink:href="24-number-theory"><g id="node15" class="node"><title>24&#45;NT</title>
<ellipse fill="none" stroke="black" cx="484.948" cy="-90" rx="34.394" ry="18"/>
<text text-anchor="middle" x="484.948" y="-86.3" font-family="Times,serif" font-size="14.00">24&#45;NT</text>
</g></a>
<!-- 24&#45;NT&#45;&gt;01&#45;C -->
<g id="edge17" class="edge"><title>24&#45;NT&#45;&gt;01&#45;C</title>
<path fill="none" stroke="black" d="M458.961,-77.9083C430.355,-65.6983 384.327,-46.0524 353.379,-32.8426"/>
<polygon fill="black" stroke="black" points="354.473,-29.5041 343.901,-28.7974 351.725,-35.9421 354.473,-29.5041"/>
</g>
<!-- 10&#45;RB -->
<a xlink:href="10-recursive-backtracking"><g id="node16" class="node"><title>10&#45;RB</title>
<ellipse fill="none" stroke="black" cx="678.948" cy="-162" rx="34.394" ry="18"/>
<text text-anchor="middle" x="678.948" y="-158.3" font-family="Times,serif" font-size="14.00">10&#45;RB</text>
</g></a>
<!-- 10&#45;RB&#45;&gt;02&#45;LS -->
<g id="edge18" class="edge"><title>10&#45;RB&#45;&gt;02&#45;LS</title>
<path fill="none" stroke="black" d="M652.691,-149.949C646.913,-147.773 640.777,-145.655 634.948,-144 551.006,-120.175 525.697,-132.492 441.948,-108 439.347,-107.24 436.687,-106.376 434.029,-105.451"/>
<polygon fill="black" stroke="black" points="435.123,-102.124 424.53,-101.906 432.675,-108.682 435.123,-102.124"/>
</g>
<!-- 23&#45;MM -->
<a xlink:href="23-misc-math"><g id="node17" class="node"><title>23&#45;MM</title>
<ellipse fill="none" stroke="black" cx="112.948" cy="-162" rx="38.9931" ry="18"/>
<text text-anchor="middle" x="112.948" y="-158.3" font-family="Times,serif" font-size="14.00">23&#45;MM</text>
</g></a>
<!-- 23&#45;MM&#45;&gt;06&#45;GB -->
<g id="edge19" class="edge"><title>23&#45;MM&#45;&gt;06&#45;GB</title>
<path fill="none" stroke="black" d="M121.242,-144.411C125.323,-136.249 130.337,-126.22 134.915,-117.065"/>
<polygon fill="black" stroke="black" points="138.128,-118.466 139.469,-107.956 131.867,-115.335 138.128,-118.466"/>
</g>
<!-- 16&#45;MST -->
<a xlink:href="16-minimum-spanning-tree"><g id="node18" class="node"><title>16&#45;MST</title>
<ellipse fill="none" stroke="black" cx="399.948" cy="-234" rx="40.8928" ry="18"/>
<text text-anchor="middle" x="399.948" y="-230.3" font-family="Times,serif" font-size="14.00">16&#45;MST</text>
</g></a>
<!-- 16&#45;MST&#45;&gt;03&#45;S -->
<g id="edge20" class="edge"><title>16&#45;MST&#45;&gt;03&#45;S</title>
<path fill="none" stroke="black" d="M417.48,-217.465C428.741,-207.486 443.496,-194.413 455.726,-183.576"/>
<polygon fill="black" stroke="black" points="458.173,-186.084 463.337,-176.832 453.531,-180.845 458.173,-186.084"/>
</g>
<!-- 16&#45;MST&#45;&gt;06&#45;GB -->
<g id="edge21" class="edge"><title>16&#45;MST&#45;&gt;06&#45;GB</title>
<path fill="none" stroke="black" d="M369.151,-222.025C362.833,-219.916 356.202,-217.805 349.948,-216 283.659,-196.875 254.193,-221.326 198.948,-180 178.087,-164.396 164.414,-137.564 156.526,-117.431"/>
<polygon fill="black" stroke="black" points="159.753,-116.065 153.016,-107.887 153.183,-118.48 159.753,-116.065"/>
</g>
<!-- 16&#45;MST&#45;&gt;07&#45;UF -->
<g id="edge22" class="edge"><title>16&#45;MST&#45;&gt;07&#45;UF</title>
<path fill="none" stroke="black" d="M399.948,-215.697C399.948,-207.983 399.948,-198.712 399.948,-190.112"/>
<polygon fill="black" stroke="black" points="403.448,-190.104 399.948,-180.104 396.448,-190.104 403.448,-190.104"/>
</g>
</g>
</svg>
