<?xml version="1.0" encoding="UTF-8" standalone="no"?>
<!DOCTYPE svg PUBLIC "-//W3C//DTD SVG 1.1//EN"
 "http://www.w3.org/Graphics/SVG/1.1/DTD/svg11.dtd">
<!-- Generated by graphviz version 2.38.0 (20140413.2041)
 -->
<!-- Title: %3 Pages: 1 -->
<svg width="700pt" height="332pt"
 viewBox="0.00 0.00 699.69 332.00" xmlns="http://www.w3.org/2000/svg" xmlns:xlink="http://www.w3.org/1999/xlink">
<g id="graph0" class="graph" transform="scale(1 1) rotate(0) translate(4 328)">
<title>%3</title>
<polygon fill="white" stroke="none" points="-4,4 -4,-328 695.689,-328 695.689,4 -4,4"/>
<!-- 02&#45;LS -->
<a xlink:href="02-linear-struct"><g id="node1" class="node"><title>02&#45;LS</title>
<ellipse fill="none" stroke="black" cx="477.948" cy="-90" rx="32.4942" ry="18"/>
<text text-anchor="middle" x="477.948" y="-86.3" font-family="Times,serif" font-size="14.00">02&#45;LS</text>
</g></a>
<!-- 01&#45;C -->
<a xlink:href="01-complexity"><g id="node2" class="node"><title>01&#45;C</title>
<ellipse fill="none" stroke="black" cx="221.948" cy="-18" rx="28.6953" ry="18"/>
<text text-anchor="middle" x="221.948" y="-14.3" font-family="Times,serif" font-size="14.00">01&#45;C</text>
</g></a>
<!-- 02&#45;LS&#45;&gt;01&#45;C -->
<g id="edge1" class="edge"><title>02&#45;LS&#45;&gt;01&#45;C</title>
<path fill="none" stroke="black" d="M449.079,-81.1062C401.98,-68.2276 308.742,-42.7328 257.59,-28.7461"/>
<polygon fill="black" stroke="black" points="258.216,-25.2886 247.646,-26.0271 256.369,-32.0407 258.216,-25.2886"/>
</g>
<!-- 06&#45;GB -->
<a xlink:href="06-graph-basics"><g id="node3" class="node"><title>06&#45;GB</title>
<ellipse fill="none" stroke="black" cx="103.948" cy="-90" rx="34.394" ry="18"/>
<text text-anchor="middle" x="103.948" y="-86.3" font-family="Times,serif" font-size="14.00">06&#45;GB</text>
</g></a>
<!-- 06&#45;GB&#45;&gt;01&#45;C -->
<g id="edge2" class="edge"><title>06&#45;GB&#45;&gt;01&#45;C</title>
<path fill="none" stroke="black" d="M125.866,-75.9976C144.793,-64.7697 172.282,-48.4627 193.013,-36.1648"/>
<polygon fill="black" stroke="black" points="194.908,-39.1103 201.722,-30.998 191.336,-33.0899 194.908,-39.1103"/>
</g>
<!-- 07&#45;UF -->
<a xlink:href="07-union-find"><g id="node4" class="node"><title>07&#45;UF</title>
<ellipse fill="none" stroke="black" cx="399.948" cy="-162" rx="33.5952" ry="18"/>
<text text-anchor="middle" x="399.948" y="-158.3" font-family="Times,serif" font-size="14.00">07&#45;UF</text>
</g></a>
<!-- 07&#45;UF&#45;&gt;02&#45;LS -->
<g id="edge3" class="edge"><title>07&#45;UF&#45;&gt;02&#45;LS</title>
<path fill="none" stroke="black" d="M416.489,-146.155C427.348,-136.41 441.729,-123.503 453.85,-112.626"/>
<polygon fill="black" stroke="black" points="456.325,-115.108 461.43,-105.824 451.649,-109.898 456.325,-115.108"/>
</g>
<!-- 04&#45;T -->
<a xlink:href="04-trees"><g id="node5" class="node"><title>04&#45;T</title>
<ellipse fill="none" stroke="black" cx="308.948" cy="-90" rx="27.8951" ry="18"/>
<text text-anchor="middle" x="308.948" y="-86.3" font-family="Times,serif" font-size="14.00">04&#45;T</text>
</g></a>
<!-- 07&#45;UF&#45;&gt;04&#45;T -->
<g id="edge4" class="edge"><title>07&#45;UF&#45;&gt;04&#45;T</title>
<path fill="none" stroke="black" d="M381.532,-146.834C368.074,-136.482 349.645,-122.306 334.724,-110.828"/>
<polygon fill="black" stroke="black" points="336.469,-107.755 326.409,-104.432 332.201,-113.303 336.469,-107.755"/>
</g>
<!-- 08&#45;ST -->
<a xlink:href="08-segment-tree"><g id="node6" class="node"><title>08&#45;ST</title>
<ellipse fill="none" stroke="black" cx="556.948" cy="-162" rx="32.4942" ry="18"/>
<text text-anchor="middle" x="556.948" y="-158.3" font-family="Times,serif" font-size="14.00">08&#45;ST</text>
</g></a>
<!-- 08&#45;ST&#45;&gt;02&#45;LS -->
<g id="edge5" class="edge"><title>08&#45;ST&#45;&gt;02&#45;LS</title>
<path fill="none" stroke="black" d="M540.194,-146.155C529.122,-136.344 514.433,-123.329 502.105,-112.405"/>
<polygon fill="black" stroke="black" points="504.212,-109.596 494.406,-105.584 499.57,-114.835 504.212,-109.596"/>
</g>
<!-- 10&#45;RB -->
<a xlink:href="10-recursive-backtracking"><g id="node7" class="node"><title>10&#45;RB</title>
<ellipse fill="none" stroke="black" cx="641.948" cy="-162" rx="34.394" ry="18"/>
<text text-anchor="middle" x="641.948" y="-158.3" font-family="Times,serif" font-size="14.00">10&#45;RB</text>
</g></a>
<!-- 10&#45;RB&#45;&gt;02&#45;LS -->
<g id="edge6" class="edge"><title>10&#45;RB&#45;&gt;02&#45;LS</title>
<path fill="none" stroke="black" d="M615.961,-149.908C588.007,-137.977 543.416,-118.944 512.518,-105.756"/>
<polygon fill="black" stroke="black" points="513.577,-102.402 503.005,-101.695 510.829,-108.84 513.577,-102.402"/>
</g>
<!-- 11&#45;BS -->
<a xlink:href="11-binary-search"><g id="node8" class="node"><title>11&#45;BS</title>
<ellipse fill="none" stroke="black" cx="597.948" cy="-234" rx="33.2948" ry="18"/>
<text text-anchor="middle" x="597.948" y="-230.3" font-family="Times,serif" font-size="14.00">11&#45;BS</text>
</g></a>
<!-- 11&#45;BS&#45;&gt;02&#45;LS -->
<g id="edge7" class="edge"><title>11&#45;BS&#45;&gt;02&#45;LS</title>
<path fill="none" stroke="black" d="M626.171,-224.193C646.506,-216.198 672.474,-202.204 684.948,-180 692.784,-166.05 694.758,-156.639 684.948,-144 664.86,-118.122 573.963,-102.724 519.521,-95.6631"/>
<polygon fill="black" stroke="black" points="519.837,-92.1753 509.478,-94.4012 518.964,-99.1206 519.837,-92.1753"/>
</g>
<!-- 03&#45;S -->
<a xlink:href="03-sorting"><g id="node9" class="node"><title>03&#45;S</title>
<ellipse fill="none" stroke="black" cx="478.948" cy="-162" rx="27.0966" ry="18"/>
<text text-anchor="middle" x="478.948" y="-158.3" font-family="Times,serif" font-size="14.00">03&#45;S</text>
</g></a>
<!-- 11&#45;BS&#45;&gt;03&#45;S -->
<g id="edge8" class="edge"><title>11&#45;BS&#45;&gt;03&#45;S</title>
<path fill="none" stroke="black" d="M576.121,-220.161C556.833,-208.815 528.572,-192.191 507.494,-179.792"/>
<polygon fill="black" stroke="black" points="509.054,-176.649 498.661,-174.596 505.505,-182.683 509.054,-176.649"/>
</g>
<!-- 13&#45;DPI -->
<a xlink:href="13-dynamic-programming-i"><g id="node10" class="node"><title>13&#45;DPI</title>
<ellipse fill="none" stroke="black" cx="249.948" cy="-306" rx="36.2938" ry="18"/>
<text text-anchor="middle" x="249.948" y="-302.3" font-family="Times,serif" font-size="14.00">13&#45;DPI</text>
</g></a>
<!-- 17&#45;SSSP -->
<a xlink:href="17-single-source-shortest-path"><g id="node11" class="node"><title>17&#45;SSSP</title>
<ellipse fill="none" stroke="black" cx="298.948" cy="-234" rx="42.4939" ry="18"/>
<text text-anchor="middle" x="298.948" y="-230.3" font-family="Times,serif" font-size="14.00">17&#45;SSSP</text>
</g></a>
<!-- 13&#45;DPI&#45;&gt;17&#45;SSSP -->
<g id="edge9" class="edge"><title>13&#45;DPI&#45;&gt;17&#45;SSSP</title>
<path fill="none" stroke="black" d="M261.312,-288.765C267.286,-280.23 274.74,-269.582 281.434,-260.019"/>
<polygon fill="black" stroke="black" points="284.437,-261.833 287.304,-251.633 278.702,-257.819 284.437,-261.833"/>
</g>
<!-- 17&#45;SSSP&#45;&gt;02&#45;LS -->
<g id="edge14" class="edge"><title>17&#45;SSSP&#45;&gt;02&#45;LS</title>
<path fill="none" stroke="black" d="M306.252,-216.132C315.509,-196.484 333.17,-164.152 356.948,-144 380.965,-123.645 414.018,-109.88 439.51,-101.491"/>
<polygon fill="black" stroke="black" points="440.737,-104.774 449.223,-98.4309 438.634,-98.0972 440.737,-104.774"/>
</g>
<!-- 17&#45;SSSP&#45;&gt;04&#45;T -->
<g id="edge15" class="edge"><title>17&#45;SSSP&#45;&gt;04&#45;T</title>
<path fill="none" stroke="black" d="M300.154,-215.871C301.858,-191.67 304.989,-147.211 307.018,-118.393"/>
<polygon fill="black" stroke="black" points="310.526,-118.41 307.737,-108.189 303.543,-117.919 310.526,-118.41"/>
</g>
<!-- 14&#45;T -->
<a xlink:href="14-traversal"><g id="node12" class="node"><title>14&#45;T</title>
<ellipse fill="none" stroke="black" cx="27.9475" cy="-162" rx="27.8951" ry="18"/>
<text text-anchor="middle" x="27.9475" y="-158.3" font-family="Times,serif" font-size="14.00">14&#45;T</text>
</g></a>
<!-- 17&#45;SSSP&#45;&gt;14&#45;T -->
<g id="edge16" class="edge"><title>17&#45;SSSP&#45;&gt;14&#45;T</title>
<path fill="none" stroke="black" d="M260.173,-226.769C213.197,-218.641 132.014,-202.726 64.9475,-180 63.0394,-179.353 61.0975,-178.64 59.1531,-177.883"/>
<polygon fill="black" stroke="black" points="60.1283,-174.496 49.5539,-173.837 57.4097,-180.946 60.1283,-174.496"/>
</g>
<!-- 14&#45;T&#45;&gt;06&#45;GB -->
<g id="edge10" class="edge"><title>14&#45;T&#45;&gt;06&#45;GB</title>
<path fill="none" stroke="black" d="M43.3273,-146.834C53.859,-137.134 68.0354,-124.077 80.0309,-113.028"/>
<polygon fill="black" stroke="black" points="82.5542,-115.463 87.5385,-106.114 77.8119,-110.314 82.5542,-115.463"/>
</g>
<!-- 16&#45;MST -->
<a xlink:href="16-minimum-spanning-tree"><g id="node13" class="node"><title>16&#45;MST</title>
<ellipse fill="none" stroke="black" cx="399.948" cy="-234" rx="40.8928" ry="18"/>
<text text-anchor="middle" x="399.948" y="-230.3" font-family="Times,serif" font-size="14.00">16&#45;MST</text>
</g></a>
<!-- 16&#45;MST&#45;&gt;06&#45;GB -->
<g id="edge12" class="edge"><title>16&#45;MST&#45;&gt;06&#45;GB</title>
<path fill="none" stroke="black" d="M369.151,-222.025C362.833,-219.916 356.202,-217.805 349.948,-216 283.659,-196.875 259.619,-212.847 198.948,-180 178.489,-168.924 177.911,-159.921 160.948,-144 150.113,-133.831 138.068,-122.618 127.853,-113.135"/>
<polygon fill="black" stroke="black" points="130.16,-110.501 120.448,-106.267 125.399,-115.633 130.16,-110.501"/>
</g>
<!-- 16&#45;MST&#45;&gt;07&#45;UF -->
<g id="edge13" class="edge"><title>16&#45;MST&#45;&gt;07&#45;UF</title>
<path fill="none" stroke="black" d="M399.948,-215.697C399.948,-207.983 399.948,-198.712 399.948,-190.112"/>
<polygon fill="black" stroke="black" points="403.448,-190.104 399.948,-180.104 396.448,-190.104 403.448,-190.104"/>
</g>
<!-- 16&#45;MST&#45;&gt;03&#45;S -->
<g id="edge11" class="edge"><title>16&#45;MST&#45;&gt;03&#45;S</title>
<path fill="none" stroke="black" d="M417.48,-217.465C428.741,-207.486 443.496,-194.413 455.726,-183.576"/>
<polygon fill="black" stroke="black" points="458.173,-186.084 463.337,-176.832 453.531,-180.845 458.173,-186.084"/>
</g>
<!-- 18&#45;APSP -->
<a xlink:href="18-all-pairs-shortest-path"><g id="node14" class="node"><title>18&#45;APSP</title>
<ellipse fill="none" stroke="black" cx="347.948" cy="-306" rx="43.5923" ry="18"/>
<text text-anchor="middle" x="347.948" y="-302.3" font-family="Times,serif" font-size="14.00">18&#45;APSP</text>
</g></a>
<!-- 18&#45;APSP&#45;&gt;17&#45;SSSP -->
<g id="edge17" class="edge"><title>18&#45;APSP&#45;&gt;17&#45;SSSP</title>
<path fill="none" stroke="black" d="M336.335,-288.411C330.355,-279.868 322.942,-269.278 316.299,-259.787"/>
<polygon fill="black" stroke="black" points="319.078,-257.655 310.476,-251.47 313.344,-261.669 319.078,-257.655"/>
</g>
<!-- 21&#45;E -->
<a xlink:href="21-eulerian"><g id="node15" class="node"><title>21&#45;E</title>
<ellipse fill="none" stroke="black" cx="27.9475" cy="-234" rx="27.8951" ry="18"/>
<text text-anchor="middle" x="27.9475" y="-230.3" font-family="Times,serif" font-size="14.00">21&#45;E</text>
</g></a>
<!-- 21&#45;E&#45;&gt;14&#45;T -->
<g id="edge18" class="edge"><title>21&#45;E&#45;&gt;14&#45;T</title>
<path fill="none" stroke="black" d="M27.9475,-215.697C27.9475,-207.983 27.9475,-198.712 27.9475,-190.112"/>
<polygon fill="black" stroke="black" points="31.4476,-190.104 27.9475,-180.104 24.4476,-190.104 31.4476,-190.104"/>
</g>
<!-- 23&#45;MM -->
<a xlink:href="23-misc-math"><g id="node16" class="node"><title>23&#45;MM</title>
<ellipse fill="none" stroke="black" cx="112.948" cy="-162" rx="38.9931" ry="18"/>
<text text-anchor="middle" x="112.948" y="-158.3" font-family="Times,serif" font-size="14.00">23&#45;MM</text>
</g></a>
<!-- 23&#45;MM&#45;&gt;06&#45;GB -->
<g id="edge19" class="edge"><title>23&#45;MM&#45;&gt;06&#45;GB</title>
<path fill="none" stroke="black" d="M110.723,-143.697C109.731,-135.983 108.539,-126.712 107.433,-118.112"/>
<polygon fill="black" stroke="black" points="110.893,-117.576 106.147,-108.104 103.951,-118.469 110.893,-117.576"/>
</g>
<!-- 24&#45;NT -->
<a xlink:href="24-number-theory"><g id="node17" class="node"><title>24&#45;NT</title>
<ellipse fill="none" stroke="black" cx="190.948" cy="-90" rx="34.394" ry="18"/>
<text text-anchor="middle" x="190.948" y="-86.3" font-family="Times,serif" font-size="14.00">24&#45;NT</text>
</g></a>
<!-- 24&#45;NT&#45;&gt;01&#45;C -->
<g id="edge20" class="edge"><title>24&#45;NT&#45;&gt;01&#45;C</title>
<path fill="none" stroke="black" d="M198.294,-72.411C201.962,-64.1292 206.481,-53.9249 210.583,-44.662"/>
<polygon fill="black" stroke="black" points="213.805,-46.0307 214.654,-35.4699 207.404,-43.1962 213.805,-46.0307"/>
</g>
<!-- 26&#45;SP -->
<a xlink:href="26-string-processing"><g id="node18" class="node"><title>26&#45;SP</title>
<ellipse fill="none" stroke="black" cx="239.948" cy="-162" rx="32.4942" ry="18"/>
<text text-anchor="middle" x="239.948" y="-158.3" font-family="Times,serif" font-size="14.00">26&#45;SP</text>
</g></a>
<!-- 26&#45;SP&#45;&gt;01&#45;C -->
<g id="edge21" class="edge"><title>26&#45;SP&#45;&gt;01&#45;C</title>
<path fill="none" stroke="black" d="M239.581,-143.855C239.012,-125.871 237.572,-96.8248 233.948,-72 232.702,-63.4669 230.816,-54.2705 228.905,-45.9724"/>
<polygon fill="black" stroke="black" points="232.262,-44.9624 226.519,-36.0592 225.457,-46.6007 232.262,-44.9624"/>
</g>
<!-- 26&#45;SP&#45;&gt;04&#45;T -->
<g id="edge22" class="edge"><title>26&#45;SP&#45;&gt;04&#45;T</title>
<path fill="none" stroke="black" d="M254.919,-145.811C264.36,-136.234 276.71,-123.705 287.219,-113.044"/>
<polygon fill="black" stroke="black" points="289.95,-115.258 294.478,-105.68 284.965,-110.344 289.95,-115.258"/>
</g>
</g>
</svg>
